# xmcd CD database file
#
# Track frame offsets:
#	187
#	16027
#	30752
#	47414
#	63304
#	79657
#	95042
#	110099
#	126322
#	147599
#	157272
#	173667
#
# Disc length: 2572 seconds
#
# Revision: 3
# Processed by: cddbd v1.5.2PL0 Copyright (c) Steve Scherf et al.
# Submitted via: CDex 1.70beta2
#
DISCID=990a0a0c
DTITLE=Professor Longhair - Rock 'n' Roll Gumbo
DYEAR=1974
DGENRE=Blues
TTITLE0=Junco Partner
TTITLE1=Meet Me Tomorrow Night
TTITLE2=Doin' It
TTITLE3=How Long Has That Train Been Gone
TTITLE4=Tipitina
TTITLE5=Rockin' Pneumonia And The Boogie Woogie Flu
TTITLE6=Jambalaya (On The Bayou)
TTITLE7=Mean Ol' World
TTITLE8=Stag-O-Lee
TTITLE9=Mess Around [Instrumental]
TTITLE10=Hey Now Baby
TTITLE11=(They Call Me) Professor Longhair
EXTD=YEAR: 1974
EXTT0=
EXTT1=
EXTT2=
EXTT3=
EXTT4=
EXTT5=
EXTT6=
EXTT7=
EXTT8=
EXTT9=
EXTT10=
EXTT11=
PLAYORDER=
